<svg xmlns="http://www.w3.org/2000/svg" viewBox="0 0 32 32"><g fill="none" fill-rule="evenodd"><path fill="#F7DB3D" fill-rule="nonzero" d="M15.984 31.936c-5.21 0-10.422 0-15.633.008-.255 0-.335-.024-.335-.32C.024 21.188.024 10.75.016.312c0-.255.056-.303.303-.303 10.438.008 20.876.008 31.314 0 .231 0 .32.024.32.295-.009 10.454-.009 20.9 0 31.354 0 .24-.049.287-.288.287-5.235-.008-10.462-.008-15.681-.008zM9.137 21.817v7.023c0 .215-.008.375.303.367 2.634-.016 5.267-.008 7.9 0 .232 0 .296-.088.288-.303-.008-.623-.024-1.253 0-1.876.016-.319-.072-.43-.415-.43-1.532.015-3.056 0-4.589.015-.303 0-.383-.08-.375-.383a76.829 76.829 0 0 0 0-3.032c-.008-.335.112-.383.407-.383 1.42.016 2.85 0 4.27.016.263 0 .335-.08.327-.335a28.15 28.15 0 0 1 0-1.836c.008-.303-.056-.407-.383-.399-1.397.024-2.793 0-4.19.016-.319 0-.439-.064-.43-.407a41.25 41.25 0 0 0 0-2.434c-.009-.343.103-.415.43-.415 1.532.016 3.057 0 4.589.016.28 0 .367-.071.359-.35a22.453 22.453 0 0 1 0-1.796c.016-.327-.08-.423-.415-.423a611.21 611.21 0 0 1-7.66 0c-.376 0-.432.12-.424.455.008 2.298.008 4.596.008 6.894zm10.646 3.807c0 .942.008 1.82 0 2.697 0 .192.111.24.255.303a8.458 8.458 0 0 0 2.29.655c1.453.2 2.897.215 4.293-.295 1.42-.52 2.41-1.469 2.674-3.001.28-1.62-.12-3.024-1.493-4.07-.925-.702-1.987-1.173-3.008-1.7-.439-.223-.886-.43-1.26-.758-.879-.766-.631-2.066.478-2.45.36-.12.726-.143 1.101-.12 1.022.057 1.98.376 2.913.759.183.08.295.08.383-.144.255-.654.535-1.3.806-1.947.072-.16.064-.247-.128-.327-1.612-.686-3.28-1.077-5.043-.894-1.213.12-2.314.503-3.144 1.445-1.516 1.707-1.197 4.492.654 5.96.726.575 1.572.942 2.378 1.357.567.296 1.15.55 1.66.942.567.423.83.973.654 1.668-.167.686-.71.95-1.348 1.061-.966.168-1.9-.024-2.825-.28-.766-.223-1.5-.542-2.29-.861z"/><path fill="#040301" d="M9.137 21.817c0-2.298.008-4.604-.008-6.902 0-.327.048-.455.423-.455 2.554.016 5.107.016 7.661 0 .335 0 .43.096.415.423a22.453 22.453 0 0 0 0 1.795c.008.28-.08.36-.36.351-1.531-.016-3.056 0-4.588-.016-.327 0-.439.072-.43.415.023.814.023 1.62 0 2.434-.009.343.111.415.43.407 1.397-.016 2.793.008 4.19-.016.327-.008.399.104.383.4a28.15 28.15 0 0 0 0 1.835c.008.255-.064.335-.327.335-1.42-.016-2.85 0-4.27-.016-.295 0-.415.048-.407.383a64.027 64.027 0 0 1 0 3.032c-.008.296.072.383.375.383 1.533-.015 3.057 0 4.589-.015.343-.008.423.103.415.43a29.387 29.387 0 0 0 0 1.876c0 .215-.056.303-.287.303-2.634-.008-5.267-.008-7.9 0-.312 0-.304-.152-.304-.367v-7.015z"/><path fill="#020200" d="M19.783 25.624c.79.32 1.516.646 2.282.854.926.255 1.86.447 2.825.28.638-.113 1.18-.384 1.348-1.062.176-.695-.087-1.245-.654-1.668-.51-.383-1.093-.646-1.66-.942-.814-.423-1.66-.782-2.378-1.356-1.86-1.469-2.17-4.246-.654-5.961.83-.942 1.93-1.317 3.144-1.445 1.764-.183 3.431.208 5.043.894.192.08.192.168.128.327-.271.647-.55 1.293-.806 1.947-.088.224-.2.224-.383.144-.934-.383-1.891-.694-2.913-.758-.375-.024-.742-.008-1.101.12-1.101.383-1.357 1.683-.479 2.45.375.327.822.534 1.261.757 1.03.527 2.083.99 3.009 1.7 1.372 1.046 1.763 2.45 1.492 4.07-.264 1.532-1.253 2.482-2.674 3-1.396.511-2.84.495-4.293.296a8.54 8.54 0 0 1-2.29-.655c-.144-.063-.255-.111-.255-.303.016-.87.008-1.747.008-2.69z"/></g></svg>