<svg xmlns="http://www.w3.org/2000/svg" viewBox="0 0 32 31"><path fill="#00618A" fill-rule="evenodd" d="M29.41 23.988c-1.741-.047-3.072.113-4.21.588-.323.135-.839.138-.891.54.177.183.205.459.346.685.272.435.73 1.017 1.14 1.323.447.334.908.691 1.387.98.852.515 1.804.808 2.625 1.323.484.304.965.687 1.437 1.03.233.169.39.432.693.539v-.05c-.159-.2-.2-.476-.347-.686l-.644-.637c-.63-.826-1.429-1.553-2.278-2.156-.678-.48-2.194-1.13-2.477-1.91l-.05-.05c.481-.054 1.044-.226 1.487-.343.745-.198 1.41-.146 2.18-.343l1.04-.294v-.196c-.39-.395-.666-.917-1.09-1.274-1.11-.935-2.32-1.868-3.567-2.646-.691-.432-1.546-.713-2.278-1.079-.247-.122-.68-.186-.843-.392-.385-.485-.594-1.1-.891-1.666a62.635 62.635 0 0 1-1.784-3.724c-.375-.85-.62-1.688-1.09-2.45-2.249-3.658-4.67-5.866-8.42-8.037-.798-.461-1.76-.644-2.774-.882l-1.635-.098c-.333-.137-.679-.54-.991-.735-1.243-.776-4.43-2.465-5.35-.245-.58 1.402.869 2.77 1.387 3.48.364.498.83 1.056 1.09 1.617.17.368.2.737.347 1.127.36.96.673 2.004 1.139 2.89.235.45.495.922.793 1.324.182.246.495.355.544.735-.306.424-.323 1.08-.495 1.617-.774 2.415-.482 5.416.644 7.204.346.548 1.16 1.725 2.279 1.274.979-.395.76-1.617 1.04-2.695.064-.245.025-.425.149-.589v.05l.891 1.763c.66 1.051 1.832 2.15 2.824 2.892.514.384.92 1.049 1.585 1.274v-.05h-.05c-.128-.198-.33-.28-.495-.44a11.27 11.27 0 0 1-1.14-1.275c-.902-1.212-1.7-2.539-2.426-3.92-.347-.66-.65-1.387-.942-2.058-.112-.259-.111-.65-.346-.784-.32.492-.793.89-1.04 1.47-.397.929-.448 2.06-.595 3.235-.087.03-.048.01-.1.048-.69-.164-.932-.867-1.188-1.47-.649-1.523-.77-3.978-.199-5.732.148-.454.816-1.884.545-2.303-.128-.42-.554-.661-.792-.98a7.677 7.677 0 0 1-.793-1.373c-.53-1.189-.778-2.523-1.337-3.724-.267-.574-.719-1.156-1.09-1.666-.41-.566-.87-.983-1.189-1.667-.113-.243-.267-.632-.1-.882.054-.168.13-.239.298-.294.288-.219 1.088.073 1.387.196.795.327 1.458.638 2.13 1.079.324.212.65.621 1.04.735h.446c.698.158 1.479.049 2.13.245 1.152.346 2.184.884 3.121 1.47 2.856 1.783 5.19 4.322 6.787 7.35.257.488.368.953.594 1.47.457 1.043 1.032 2.117 1.486 3.137.454 1.017.895 2.044 1.536 2.89.337.446 1.638.685 2.23.932.414.173 1.093.354 1.485.588.75.447 1.477.98 2.18 1.47.352.245 1.432.782 1.486 1.225zM7.269 5.318c-.363-.007-.62.04-.891.098v.049h.049c.173.352.479.578.693.882l.496 1.029.05-.05c.306-.213.446-.555.445-1.077-.123-.128-.141-.289-.248-.441-.141-.204-.415-.32-.594-.49z"/></svg>