<svg xmlns="http://www.w3.org/2000/svg" viewBox="0 0 32 32"><g fill="none" fill-rule="evenodd"><path fill="#8CC84B" d="M27.312 27.312C30.419 24.176 32 20.416 32 16c0-4.416-1.58-8.177-4.688-11.312C24.176 1.581 20.416 0 16 0 11.584 0 7.823 1.58 4.688 4.688 1.581 7.823 0 11.584 0 16c0 4.416 1.58 8.177 4.688 11.312C7.823 30.446 11.584 32 16 32c4.416 0 8.177-1.554 11.312-4.688z"/><path fill="#FFF" fill-rule="nonzero" d="M15.997 27.727c-.316 0-.627-.083-.901-.241l-2.87-1.698c-.428-.24-.22-.325-.078-.374.571-.199.688-.245 1.297-.59.064-.036.148-.021.214.016l2.204 1.309c.08.044.192.044.267 0l8.595-4.962a.27.27 0 0 0 .131-.232v-9.918a.277.277 0 0 0-.133-.237l-8.591-4.956a.269.269 0 0 0-.265 0l-8.59 4.958a.277.277 0 0 0-.135.234v9.92c0 .095.052.184.135.23l2.354 1.36c1.278.637 2.06-.115 2.06-.87v-9.793c0-.138.112-.247.25-.247h1.09c.136 0 .248.11.248.247v9.794c0 1.704-.929 2.682-2.545 2.682-.496 0-.888 0-1.98-.537l-2.253-1.298a1.813 1.813 0 0 1-.902-1.567v-9.92c0-.645.345-1.246.902-1.567l8.595-4.966a1.883 1.883 0 0 1 1.806 0l8.594 4.966c.558.325.902.922.903 1.567v9.92a1.819 1.819 0 0 1-.903 1.566l-8.594 4.963c-.275.16-.586.241-.905.241zm2.655-6.834c-3.761 0-4.55-1.726-4.55-3.173 0-.139.112-.249.25-.249h1.11a.25.25 0 0 1 .247.21c.167 1.13.668 1.703 2.942 1.703 1.81 0 2.582-.41 2.582-1.37 0-.554-.22-.965-3.033-1.241-2.352-.232-3.806-.752-3.806-2.634 0-1.733 1.461-2.768 3.913-2.768 2.753 0 4.115.955 4.288 3.006a.251.251 0 0 1-.064.191.256.256 0 0 1-.183.08h-1.115a.248.248 0 0 1-.242-.195c-.267-1.189-.918-1.57-2.684-1.57-1.977 0-2.207.69-2.207 1.205 0 .625.27.807 2.94 1.16 2.642.35 3.895.845 3.895 2.702 0 1.872-1.56 2.944-4.284 2.944z"/></g></svg>