<svg xmlns="http://www.w3.org/2000/svg" viewBox="0 0 32 32"><g fill="none" fill-rule="evenodd"><circle cx="16" cy="16" r="16" fill="#6082BB"/><g fill="#FFF"><path fill-rule="nonzero" d="M8.024 17.67c.713 0 1.245-.134 1.582-.397.333-.26.563-.712.683-1.341.113-.589.07-1-.127-1.222-.201-.226-.636-.341-1.293-.341h-1.14l-.631 3.3h.926zm-3.726 4.066a.176.176 0 0 1-.137-.066.182.182 0 0 1-.037-.149l1.674-8.747a.178.178 0 0 1 .174-.145h3.607c1.134 0 1.978.312 2.508.929.533.62.698 1.487.49 2.576a4.156 4.156 0 0 1-.434 1.225c-.204.37-.472.71-.799 1.016-.39.371-.833.64-1.313.8-.473.156-1.08.235-1.805.235H6.765l-.417 2.18a.178.178 0 0 1-.174.146H4.298z"/><path d="M17.025 19.41a.173.173 0 0 1-.135-.065.184.184 0 0 1-.037-.15l.73-3.87c.07-.367.053-.632-.048-.743-.061-.069-.246-.183-.793-.183h-1.324l-.92 4.865a.176.176 0 0 1-.171.146H12.49a.173.173 0 0 1-.135-.065.184.184 0 0 1-.037-.15l1.652-8.746a.176.176 0 0 1 .172-.146h1.837c.052 0 .102.024.135.066a.184.184 0 0 1 .037.148l-.399 2.112h1.425c1.085 0 1.82.196 2.25.601.436.414.572 1.074.404 1.964l-.768 4.07a.176.176 0 0 1-.172.146h-1.866z"/><path fill-rule="nonzero" d="M23.213 17.67c.74 0 1.293-.134 1.643-.397.346-.26.585-.712.71-1.341.117-.589.072-1-.132-1.222-.21-.226-.661-.341-1.343-.341h-1.183l-.656 3.3h.961zm-3.868 4.066a.185.185 0 0 1-.142-.066.177.177 0 0 1-.04-.149l1.739-8.747a.183.183 0 0 1 .18-.145h3.746c1.177 0 2.054.312 2.604.929.554.62.725 1.487.509 2.576-.089.444-.24.856-.45 1.225-.212.37-.49.71-.83 1.016a3.653 3.653 0 0 1-1.364.8c-.49.156-1.122.235-1.874.235h-1.517l-.433 2.18a.183.183 0 0 1-.18.146h-1.948z"/></g></g></svg>