<?xml version="1.0" standalone="no"?>
<!DOCTYPE svg PUBLIC "-//W3C//DTD SVG 20010904//EN"
 "http://www.w3.org/TR/2001/REC-SVG-20010904/DTD/svg10.dtd">
<svg version="1.0" xmlns="http://www.w3.org/2000/svg"
 width="286.000000pt" height="286.000000pt" viewBox="0 0 286.000000 286.000000"
 preserveAspectRatio="xMidYMid meet">

<g transform="translate(0.000000,286.000000) scale(0.100000,-0.100000)"
fill="#ff372c" stroke="none">
<path d="M2063 2222 c-110 -39 -180 -113 -225 -237 -29 -83 -37 -283 -14 -373
31 -123 103 -233 189 -292 l35 -24 -43 -86 c-97 -193 -245 -372 -330 -400 -43
-14 -96 -8 -131 15 -31 20 -68 95 -83 165 -37 169 -34 629 4 900 9 58 18 139
21 180 6 71 5 78 -18 105 -21 24 -34 29 -84 32 -119 8 -161 -38 -193 -214 -99
-538 -250 -954 -406 -1120 -47 -50 -68 -65 -97 -70 -33 -5 -41 -2 -67 26 -114
122 -136 531 -60 1116 21 167 18 203 -18 237 -21 19 -35 23 -93 23 -119 0
-147 -40 -174 -256 -28 -223 -36 -341 -36 -546 0 -310 32 -506 110 -670 68
-145 143 -198 275 -198 112 1 174 32 280 139 96 97 163 208 237 390 l53 128 8
-83 c29 -326 127 -527 276 -569 92 -26 213 2 320 72 149 98 336 331 443 551
23 49 23 49 63 43 22 -3 92 -9 155 -12 134 -8 166 2 194 60 24 50 21 91 -8
114 -20 15 -48 20 -143 25 -134 7 -157 12 -148 36 48 116 85 318 85 455 0 175
-38 265 -136 322 -62 36 -165 43 -241 16z m108 -228 c23 -25 24 -31 23 -157
-1 -114 -5 -146 -30 -231 -16 -55 -34 -101 -41 -103 -16 -6 -74 76 -95 135
-23 63 -24 221 -2 285 17 52 63 97 98 97 12 0 33 -12 47 -26z"/>
</g>
</svg>
