<?xml version="1.0" standalone="no"?>
<!DOCTYPE svg PUBLIC "-//W3C//DTD SVG 20010904//EN"
 "http://www.w3.org/TR/2001/REC-SVG-20010904/DTD/svg10.dtd">
<svg version="1.0" xmlns="http://www.w3.org/2000/svg"
 width="260.000000pt" height="260.000000pt" viewBox="0 0 260.000000 260.000000"
 preserveAspectRatio="xMidYMid meet">
<metadata>
Created by potrace 1.11, written by Peter Selinger 2001-2013
</metadata>
<g transform="translate(0.000000,260.000000) scale(0.100000,-0.100000)"
fill="#000000" stroke="none">
<path d="M475 2506 c24 -34 59 -84 79 -111 96 -137 168 -246 165 -249 -2 -1
-40 -13 -84 -25 -44 -13 -111 -34 -150 -46 -60 -20 -241 -76 -298 -92 -14 -4
12 -23 92 -68 110 -63 192 -122 265 -190 26 -24 44 -34 55 -30 9 4 27 11 41
15 14 4 83 31 154 59 71 28 136 51 145 51 9 0 48 -45 86 -101 39 -55 103 -146
142 -202 40 -56 75 -106 77 -112 8 -22 24 14 51 115 15 58 29 112 31 121 5 19
72 39 127 39 l34 0 -39 -142 c-21 -77 -37 -147 -34 -153 4 -11 43 -15 211 -19
l39 -1 34 120 c18 66 34 126 35 134 2 18 -81 46 -165 56 -55 7 -57 8 -73 47
-28 72 -55 200 -61 298 -5 74 -2 122 16 220 12 69 24 141 27 160 l5 35 -27
-30 c-48 -53 -131 -148 -185 -212 -29 -35 -56 -63 -60 -63 -4 0 -10 8 -13 18
-3 9 -20 58 -37 107 -25 72 -70 267 -70 307 0 4 -11 8 -24 8 -18 0 -40 -22
-95 -95 l-72 -96 -27 21 c-113 87 -244 140 -404 163 l-36 5 43 -62z"/>
<path d="M1840 1463 c-14 -54 -25 -102 -25 -107 0 -11 3 -12 144 -21 93 -6
112 -4 105 7 -40 68 -174 218 -194 218 -3 0 -17 -44 -30 -97z"/>
<path d="M1370 1235 c0 -8 149 -225 167 -244 8 -7 16 -12 18 -9 3 3 65 223 65
232 0 2 -30 7 -67 10 -38 4 -94 9 -125 12 -32 3 -58 3 -58 -1z"/>
<path d="M1771 1200 c-5 -3 -14 -30 -21 -60 -7 -30 -22 -81 -32 -114 -11 -32
-16 -62 -11 -66 4 -5 62 -11 129 -15 l120 -7 28 94 c15 51 32 104 37 117 6 13
6 27 2 32 -10 9 -241 27 -252 19z"/>
<path d="M2142 1065 c-18 -64 -32 -122 -32 -129 0 -10 29 -15 111 -20 61 -4
113 -6 115 -4 8 8 -48 111 -101 187 -31 45 -58 81 -59 81 -2 0 -17 -52 -34
-115z"/>
<path d="M1665 812 c-5 -5 176 -257 183 -256 4 0 9 9 11 20 2 10 16 64 32 118
16 55 27 101 26 102 -4 4 -249 19 -252 16z"/>
<path d="M2051 744 c-5 -22 -19 -74 -30 -116 -12 -43 -21 -82 -21 -86 0 -5 47
-12 104 -15 58 -4 136 -10 174 -13 l69 -7 12 47 c6 25 14 79 18 121 6 72 5 75
-18 84 -13 5 -86 12 -161 16 l-137 7 -10 -38z"/>
<path d="M1966 378 c8 -13 133 -190 140 -197 2 -2 24 13 49 34 44 36 132 142
124 149 -5 5 -236 26 -284 26 -26 0 -34 -3 -29 -12z"/>
</g>
</svg>
