<svg height="512pt" viewBox="0 0 512 512.00138" width="512pt" xmlns="http://www.w3.org/2000/svg"><path d="m441.796875 155.054688-84.851563-84.855469c39.457032-39.453125 104.15625-36.273438 106.914063-36.0625l13.367187.636719.632813 13.367187c.214844 2.757813 3.394531 67.457031-36.0625 106.914063zm0 0" fill="#9cdd05"/><path d="m441.796875 155.054688-42.425781-42.425782 77.855468-77.855468.632813 13.367187c.214844 2.757813 3.394531 67.457031-36.0625 106.914063zm0 0" fill="#6b0"/><path d="m511.863281 168.417969-33.363281 11.457031c-28.425781 9.332031-59.730469 28.335938-83.492188 46.578125l-109.460937-109.460937c18.246094-23.761719 37.246094-55.0625 46.578125-83.488282l11.457031-33.503906 56.425781 111.992188zm0 0" fill="#6b0"/><path d="m395.007812 226.453125-54.730468-54.730469 59.730468-59.730468 111.855469 56.429687-33.363281 11.453125c-28.425781 9.332031-59.730469 28.335938-83.492188 46.578125zm0 0" fill="#4a8900"/><path d="m490.894531 259.96875-54.097656-.210938c-38.816406.210938-81.152344 16.667969-112.972656 38.726563l-110.308594-110.308594c22.0625-31.820312 38.515625-74.15625 38.730469-112.976562l-.210938-54.09375 89.730469 149.128906zm0 0" fill="#9cdd05"/><path d="m490.894531 259.96875-54.097656-.210938c-38.816406.210938-81.152344 16.667969-112.972656 38.726563l-55.15625-55.152344 73.09375-73.09375zm0 0" fill="#6b0"/><path d="m278.640625 424.277344-25.246094 4.03125v21.214844l-23.121093 23.121093c-8.910157 8.910157-18.878907 16.335938-29.484376 22.277344l-16.761718-7-12.089844 18.878906c-17.605469 5.300781-36.0625 6.363281-54.09375 4.03125l-17.816406-21.214843-13.363282 13.789062c-17.183593-6.574219-33.308593-16.757812-47.308593-30.757812s-24.183594-30.125-30.761719-47.308594l12.515625-13.363282-19.9375-17.820312c-2.332031-18.03125-1.273437-36.484375 4.03125-54.09375l20.789063-10.605469-8.910157-18.242187c5.941407-10.609375 13.363281-20.578125 22.273438-29.488282l23.125-23.121093 24.605469-2.121094.636718-23.125 15.273438-15.269531c11.246094-11.246094 23.761718-19.941406 37.335937-26.304688l12.089844 12.089844 17.394531-22.0625c18.03125-4.03125 36.488282-4.242188 54.519532-.636719l12.515624 18.878907 18.457032-8.695313c14 6.363281 27.152344 15.273437 38.605468 26.730469 11.457032 11.453125 20.367188 24.605468 26.730469 38.605468l-10.820312 13.789063 21.003906 17.183594c3.605469 18.03125 3.394531 36.484375-.636719 54.519531l-22.699218 12.9375 12.726562 16.546875c-6.363281 13.574219-15.058594 26.089844-26.304688 37.335937zm0 0" fill="#fdbf00"/><path d="m278.640625 424.277344-25.246094 4.03125v21.214844l-23.121093 23.121093c-8.910157 8.910157-18.878907 16.335938-29.484376 22.277344l-16.761718-7-12.089844 18.878906c-17.605469 5.300781-36.0625 6.363281-54.09375 4.03125l-17.816406-21.214843-13.363282 13.789062c-17.183593-6.574219-33.308593-16.757812-47.308593-30.757812l254.558593-254.558594c11.457032 11.457031 20.363282 24.605468 26.730469 38.605468l-10.820312 13.789063 21.003906 17.183594c3.605469 18.03125 3.390625 36.488281-.640625 54.519531l-22.695312 12.9375 12.726562 16.546875c-6.363281 13.574219-15.0625 26.09375-26.304688 37.335937zm0 0" fill="#ff9100"/><path d="m278.640625 424.277344-5.726563-57.484375 47.304688 4.878906c4.667969-9.335937 7.847656-19.304687 9.96875-29.484375l-60.246094-5.945312-5.515625-55.152344 66.398438 6.574218c-2.121094-10.601562-5.300781-21-10.183594-30.96875l-59.394531-5.941406-5.941406-59.394531c-9.96875-4.882813-20.363282-8.0625-30.96875-10.183594l6.574218 66.398438-55.152344-5.515625-5.945312-60.246094c-10.179688 2.121094-20.148438 5.300781-29.484375 9.96875l4.878906 47.308594-57.484375-5.730469-25.246094 25.246094 5.515626 57.699219-50.910157-5.089844c-5.304687 9.121094-9.125 18.878906-11.878906 28.847656l65.972656 6.578125 5.511719 55.15625-75.515625-7.640625c1.0625 10.820312 3.605469 21 7.421875 31.183594l71.066406 7 7 71.066406c10.183594 3.816406 20.363282 6.363281 31.183594 7.421875l-7.636719-75.515625 55.152344 5.511719 6.578125 65.976562c9.96875-2.761719 19.726562-6.578125 28.851562-11.878906l-5.09375-50.914063 57.703126 5.515626zm-44.761719-146.15625 5.515625 55.152344-55.152343-5.515626-5.519532-55.152343zm-140.855468-14 55.15625 5.515625 5.511718 55.152343-55.152344-5.515624zm14 140.855468-5.515626-55.15625 55.367188 5.304688 5.300781 55.367188zm85.703124 8.484376-5.515624-55.15625 55.152343 5.515624 5.515625 55.15625zm0 0" fill="#ffda2d"/><path d="m278.640625 424.277344-5.726563-57.484375 47.304688 4.878906c4.667969-9.335937 7.847656-19.304687 9.96875-29.484375l-60.246094-5.945312-5.515625-55.152344 66.398438 6.574218c-2.121094-10.601562-5.300781-21-10.183594-30.96875l-59.394531-5.941406-27.367188 27.367188 5.515625 55.152344-55.152343-5.515626-27.367188 27.367188 5.300781 55.367188-55.152343-5.515626-27.363282 27.363282 7 71.066406c10.183594 3.816406 20.363282 6.359375 31.183594 7.421875l-7.636719-75.519531 55.152344 5.515625 6.578125 65.972656c9.96875-2.757813 19.726562-6.574219 28.851562-11.878906l-5.09375-50.910157 57.703126 5.515626zm-85.914063-10.816406-5.515624-55.15625 55.152343 5.515624 5.515625 55.15625zm0 0" fill="#fdbf00"/></svg>